<mxfile host="app.diagrams.net" agent="Mozilla/5.0 (Macintosh; Intel Mac OS X 10_15_7) AppleWebKit/537.36 (KHTML, like Gecko) Chrome/134.0.0.0 Safari/537.36" version="26.1.1">
  <diagram name="Page-1" id="RQyKkqTuvx_y5mn-qcZs">
    <mxGraphModel dx="1529" dy="656" grid="0" gridSize="10" guides="1" tooltips="1" connect="1" arrows="1" fold="1" page="0" pageScale="1" pageWidth="827" pageHeight="1169" math="0" shadow="0">
      <root>
        <mxCell id="0" />
        <mxCell id="1" parent="0" />
        <mxCell id="UAGfIpVBjQEifgqwKxHg-1" value="From Dashboard" style="rounded=1;whiteSpace=wrap;arcSize=50;strokeWidth=2;labelBackgroundColor=none;fillColor=#FAE5C7;strokeColor=#0F8B8D;fontColor=#143642;" parent="1" vertex="1">
          <mxGeometry x="114" y="20" width="141" height="39" as="geometry" />
        </mxCell>
        <mxCell id="UAGfIpVBjQEifgqwKxHg-2" value="Customers Page" style="whiteSpace=wrap;strokeWidth=2;labelBackgroundColor=none;fillColor=#FAE5C7;strokeColor=#0F8B8D;fontColor=#143642;" parent="1" vertex="1">
          <mxGeometry x="98" y="109" width="173" height="54" as="geometry" />
        </mxCell>
        <mxCell id="UAGfIpVBjQEifgqwKxHg-3" value="Customer Action" style="rhombus;strokeWidth=2;whiteSpace=wrap;labelBackgroundColor=none;fillColor=#FAE5C7;strokeColor=#0F8B8D;fontColor=#143642;" parent="1" vertex="1">
          <mxGeometry x="99" y="213" width="171" height="171" as="geometry" />
        </mxCell>
        <mxCell id="UAGfIpVBjQEifgqwKxHg-4" value="View Customer List" style="whiteSpace=wrap;strokeWidth=2;labelBackgroundColor=none;fillColor=#FAE5C7;strokeColor=#0F8B8D;fontColor=#143642;" parent="1" vertex="1">
          <mxGeometry x="202" y="415" width="197" height="54" as="geometry" />
        </mxCell>
        <mxCell id="UAGfIpVBjQEifgqwKxHg-5" value="Add New Customer" style="whiteSpace=wrap;strokeWidth=2;labelBackgroundColor=none;fillColor=#FAE5C7;strokeColor=#0F8B8D;fontColor=#143642;" parent="1" vertex="1">
          <mxGeometry x="-29" y="415" width="196" height="54" as="geometry" />
        </mxCell>
        <mxCell id="UAGfIpVBjQEifgqwKxHg-7" value="Search/Filter Customers" style="whiteSpace=wrap;strokeWidth=2;labelBackgroundColor=none;fillColor=#FAE5C7;strokeColor=#0F8B8D;fontColor=#143642;" parent="1" vertex="1">
          <mxGeometry x="202" y="489" width="197" height="54" as="geometry" />
        </mxCell>
        <mxCell id="UAGfIpVBjQEifgqwKxHg-8" value="Select Customer" style="whiteSpace=wrap;strokeWidth=2;labelBackgroundColor=none;fillColor=#FAE5C7;strokeColor=#0F8B8D;fontColor=#143642;" parent="1" vertex="1">
          <mxGeometry x="202" y="562" width="196" height="54" as="geometry" />
        </mxCell>
        <mxCell id="UAGfIpVBjQEifgqwKxHg-9" value="Customer Details" style="whiteSpace=wrap;strokeWidth=2;labelBackgroundColor=none;fillColor=#FAE5C7;strokeColor=#0F8B8D;fontColor=#143642;" parent="1" vertex="1">
          <mxGeometry x="202" y="637" width="196" height="49" as="geometry" />
        </mxCell>
        <mxCell id="UAGfIpVBjQEifgqwKxHg-10" value="Edit Customer?" style="rhombus;strokeWidth=2;whiteSpace=wrap;labelBackgroundColor=none;fillColor=#FAE5C7;strokeColor=#0F8B8D;fontColor=#143642;" parent="1" vertex="1">
          <mxGeometry x="219.5" y="707" width="161" height="161" as="geometry" />
        </mxCell>
        <mxCell id="UAGfIpVBjQEifgqwKxHg-11" value="Update Customer" style="whiteSpace=wrap;strokeWidth=2;labelBackgroundColor=none;fillColor=#FAE5C7;strokeColor=#0F8B8D;fontColor=#143642;" parent="1" vertex="1">
          <mxGeometry x="208" y="911" width="184" height="54" as="geometry" />
        </mxCell>
        <mxCell id="UAGfIpVBjQEifgqwKxHg-12" value="Complete Customer Form" style="whiteSpace=wrap;strokeWidth=2;labelBackgroundColor=none;fillColor=#FAE5C7;strokeColor=#0F8B8D;fontColor=#143642;" parent="1" vertex="1">
          <mxGeometry x="-29" y="489" width="195" height="54" as="geometry" />
        </mxCell>
        <mxCell id="UAGfIpVBjQEifgqwKxHg-13" value="Save Customer" style="whiteSpace=wrap;strokeWidth=2;labelBackgroundColor=none;fillColor=#FAE5C7;strokeColor=#0F8B8D;fontColor=#143642;" parent="1" vertex="1">
          <mxGeometry x="-28" y="562" width="194" height="54" as="geometry" />
        </mxCell>
        <mxCell id="UAGfIpVBjQEifgqwKxHg-14" value="Customer Added Confirmation" style="whiteSpace=wrap;strokeWidth=2;labelBackgroundColor=none;fillColor=#FAE5C7;strokeColor=#0F8B8D;fontColor=#143642;" parent="1" vertex="1">
          <mxGeometry x="-28" y="637" width="194" height="49" as="geometry" />
        </mxCell>
        <mxCell id="UAGfIpVBjQEifgqwKxHg-15" value="" style="curved=0;startArrow=none;endArrow=block;exitX=0.5;exitY=1;entryX=0.5;entryY=0;rounded=0;labelBackgroundColor=none;strokeColor=#A8201A;fontColor=default;" parent="1" source="UAGfIpVBjQEifgqwKxHg-1" target="UAGfIpVBjQEifgqwKxHg-2" edge="1">
          <mxGeometry relative="1" as="geometry">
            <Array as="points" />
          </mxGeometry>
        </mxCell>
        <mxCell id="UAGfIpVBjQEifgqwKxHg-16" value="" style="curved=0;startArrow=none;endArrow=block;exitX=0.5;exitY=1;entryX=0.5;entryY=0;rounded=0;labelBackgroundColor=none;strokeColor=#A8201A;fontColor=default;" parent="1" source="UAGfIpVBjQEifgqwKxHg-2" target="UAGfIpVBjQEifgqwKxHg-3" edge="1">
          <mxGeometry relative="1" as="geometry">
            <Array as="points" />
          </mxGeometry>
        </mxCell>
        <mxCell id="UAGfIpVBjQEifgqwKxHg-17" value="View Customers" style="startArrow=none;endArrow=block;exitX=1;exitY=0.5;entryX=0.5;entryY=0;rounded=0;labelBackgroundColor=none;strokeColor=#A8201A;fontColor=default;exitDx=0;exitDy=0;edgeStyle=orthogonalEdgeStyle;" parent="1" source="UAGfIpVBjQEifgqwKxHg-3" target="UAGfIpVBjQEifgqwKxHg-4" edge="1">
          <mxGeometry relative="1" as="geometry" />
        </mxCell>
        <mxCell id="UAGfIpVBjQEifgqwKxHg-18" value="Add Customer" style="startArrow=none;endArrow=block;exitX=0;exitY=0.5;entryX=0.5;entryY=0;rounded=0;labelBackgroundColor=none;strokeColor=#A8201A;fontColor=default;exitDx=0;exitDy=0;edgeStyle=orthogonalEdgeStyle;" parent="1" source="UAGfIpVBjQEifgqwKxHg-3" target="UAGfIpVBjQEifgqwKxHg-5" edge="1">
          <mxGeometry relative="1" as="geometry" />
        </mxCell>
        <mxCell id="UAGfIpVBjQEifgqwKxHg-20" value="" style="startArrow=none;endArrow=block;exitX=0.5;exitY=1;entryX=0.5;entryY=0;rounded=0;labelBackgroundColor=none;strokeColor=#A8201A;fontColor=default;exitDx=0;exitDy=0;" parent="1" source="UAGfIpVBjQEifgqwKxHg-4" target="UAGfIpVBjQEifgqwKxHg-7" edge="1">
          <mxGeometry relative="1" as="geometry" />
        </mxCell>
        <mxCell id="UAGfIpVBjQEifgqwKxHg-21" value="" style="curved=0;startArrow=none;endArrow=block;exitX=0.5;exitY=1;entryX=0.5;entryY=0.01;rounded=0;labelBackgroundColor=none;strokeColor=#A8201A;fontColor=default;" parent="1" source="UAGfIpVBjQEifgqwKxHg-7" target="UAGfIpVBjQEifgqwKxHg-8" edge="1">
          <mxGeometry relative="1" as="geometry">
            <Array as="points" />
          </mxGeometry>
        </mxCell>
        <mxCell id="UAGfIpVBjQEifgqwKxHg-22" value="" style="curved=0;startArrow=none;endArrow=block;exitX=0.5;exitY=1.01;entryX=0.5;entryY=0.01;rounded=0;labelBackgroundColor=none;strokeColor=#A8201A;fontColor=default;" parent="1" source="UAGfIpVBjQEifgqwKxHg-8" target="UAGfIpVBjQEifgqwKxHg-9" edge="1">
          <mxGeometry relative="1" as="geometry">
            <Array as="points" />
          </mxGeometry>
        </mxCell>
        <mxCell id="UAGfIpVBjQEifgqwKxHg-23" value="" style="startArrow=none;endArrow=block;exitX=0.5;exitY=1.01;entryX=0.5;entryY=0;rounded=0;labelBackgroundColor=none;strokeColor=#A8201A;fontColor=default;entryDx=0;entryDy=0;" parent="1" source="UAGfIpVBjQEifgqwKxHg-9" target="UAGfIpVBjQEifgqwKxHg-10" edge="1">
          <mxGeometry relative="1" as="geometry" />
        </mxCell>
        <mxCell id="UAGfIpVBjQEifgqwKxHg-24" value="Yes" style="startArrow=none;endArrow=block;exitX=0.5;exitY=1;entryX=0.5;entryY=0;rounded=0;labelBackgroundColor=none;strokeColor=#A8201A;fontColor=default;entryDx=0;entryDy=0;" parent="1" source="UAGfIpVBjQEifgqwKxHg-10" target="UAGfIpVBjQEifgqwKxHg-11" edge="1">
          <mxGeometry x="0.0008" relative="1" as="geometry">
            <mxPoint as="offset" />
          </mxGeometry>
        </mxCell>
        <mxCell id="UAGfIpVBjQEifgqwKxHg-25" value="No" style="startArrow=none;endArrow=block;exitX=1;exitY=0.5;entryX=1;entryY=0.5;rounded=0;labelBackgroundColor=none;strokeColor=#A8201A;fontColor=default;exitDx=0;exitDy=0;entryDx=0;entryDy=0;edgeStyle=orthogonalEdgeStyle;" parent="1" source="UAGfIpVBjQEifgqwKxHg-10" target="UAGfIpVBjQEifgqwKxHg-2" edge="1">
          <mxGeometry x="-0.9467" relative="1" as="geometry">
            <Array as="points">
              <mxPoint x="441" y="788" />
              <mxPoint x="441" y="136" />
            </Array>
            <mxPoint as="offset" />
          </mxGeometry>
        </mxCell>
        <mxCell id="UAGfIpVBjQEifgqwKxHg-26" value="" style="startArrow=none;endArrow=block;exitX=1;exitY=0.5;rounded=0;labelBackgroundColor=none;strokeColor=#A8201A;fontColor=default;exitDx=0;exitDy=0;entryX=1;entryY=0.5;entryDx=0;entryDy=0;edgeStyle=orthogonalEdgeStyle;" parent="1" source="UAGfIpVBjQEifgqwKxHg-11" target="UAGfIpVBjQEifgqwKxHg-2" edge="1">
          <mxGeometry relative="1" as="geometry">
            <Array as="points">
              <mxPoint x="482" y="938" />
              <mxPoint x="482" y="136" />
            </Array>
            <mxPoint x="287" y="158" as="targetPoint" />
          </mxGeometry>
        </mxCell>
        <mxCell id="WQDAzGkQ_9ila5XtpZWJ-3" value="Back" style="edgeLabel;html=1;align=center;verticalAlign=middle;resizable=0;points=[];" vertex="1" connectable="0" parent="UAGfIpVBjQEifgqwKxHg-26">
          <mxGeometry x="-0.0318" y="-1" relative="1" as="geometry">
            <mxPoint as="offset" />
          </mxGeometry>
        </mxCell>
        <mxCell id="UAGfIpVBjQEifgqwKxHg-27" value="" style="curved=0;startArrow=none;endArrow=block;exitX=0.5;exitY=1;entryX=0.5;entryY=0;rounded=0;labelBackgroundColor=none;strokeColor=#A8201A;fontColor=default;" parent="1" source="UAGfIpVBjQEifgqwKxHg-5" target="UAGfIpVBjQEifgqwKxHg-12" edge="1">
          <mxGeometry relative="1" as="geometry">
            <Array as="points" />
          </mxGeometry>
        </mxCell>
        <mxCell id="UAGfIpVBjQEifgqwKxHg-28" value="" style="curved=0;startArrow=none;endArrow=block;exitX=0.5;exitY=1;entryX=0.5;entryY=0.01;rounded=0;labelBackgroundColor=none;strokeColor=#A8201A;fontColor=default;" parent="1" source="UAGfIpVBjQEifgqwKxHg-12" target="UAGfIpVBjQEifgqwKxHg-13" edge="1">
          <mxGeometry relative="1" as="geometry">
            <Array as="points" />
          </mxGeometry>
        </mxCell>
        <mxCell id="UAGfIpVBjQEifgqwKxHg-29" value="" style="curved=0;startArrow=none;endArrow=block;exitX=0.5;exitY=1.01;entryX=0.5;entryY=0.01;rounded=0;labelBackgroundColor=none;strokeColor=#A8201A;fontColor=default;" parent="1" source="UAGfIpVBjQEifgqwKxHg-13" target="UAGfIpVBjQEifgqwKxHg-14" edge="1">
          <mxGeometry relative="1" as="geometry">
            <Array as="points" />
          </mxGeometry>
        </mxCell>
        <mxCell id="UAGfIpVBjQEifgqwKxHg-30" value="" style="startArrow=none;endArrow=block;exitX=0;exitY=0.5;rounded=0;labelBackgroundColor=none;strokeColor=#A8201A;fontColor=default;exitDx=0;exitDy=0;entryX=0;entryY=0.5;entryDx=0;entryDy=0;edgeStyle=orthogonalEdgeStyle;" parent="1" source="UAGfIpVBjQEifgqwKxHg-14" target="UAGfIpVBjQEifgqwKxHg-2" edge="1">
          <mxGeometry relative="1" as="geometry">
            <Array as="points">
              <mxPoint x="-68" y="662" />
              <mxPoint x="-68" y="136" />
            </Array>
            <mxPoint x="174" y="869" as="sourcePoint" />
            <mxPoint x="-110" y="464" as="targetPoint" />
          </mxGeometry>
        </mxCell>
        <mxCell id="WQDAzGkQ_9ila5XtpZWJ-2" value="Back" style="edgeLabel;html=1;align=center;verticalAlign=middle;resizable=0;points=[];" vertex="1" connectable="0" parent="UAGfIpVBjQEifgqwKxHg-30">
          <mxGeometry x="-0.0529" y="1" relative="1" as="geometry">
            <mxPoint as="offset" />
          </mxGeometry>
        </mxCell>
      </root>
    </mxGraphModel>
  </diagram>
</mxfile>
